<svg id="visual" viewBox="0 0 900 600" width="900" height="600" xmlns="http://www.w3.org/2000/svg" xmlns:xlink="http://www.w3.org/1999/xlink" version="1.1"><rect x="0" y="0" width="900" height="600" fill="#FA7268"></rect><path d="M0 269L90 161L180 166L270 176L360 246L450 153L540 232L630 205L720 204L810 183L900 226L900 601L810 601L720 601L630 601L540 601L450 601L360 601L270 601L180 601L90 601L0 601Z" fill="#fa7668"></path><path d="M0 239L90 262L180 312L270 284L360 300L450 244L540 206L630 244L720 287L810 226L900 208L900 601L810 601L720 601L630 601L540 601L450 601L360 601L270 601L180 601L90 601L0 601Z" fill="#ef6866"></path><path d="M0 320L90 322L180 269L270 265L360 347L450 338L540 301L630 335L720 347L810 343L900 314L900 601L810 601L720 601L630 601L540 601L450 601L360 601L270 601L180 601L90 601L0 601Z" fill="#e45a64"></path><path d="M0 400L90 331L180 394L270 369L360 388L450 352L540 376L630 355L720 332L810 330L900 367L900 601L810 601L720 601L630 601L540 601L450 601L360 601L270 601L180 601L90 601L0 601Z" fill="#d84c63"></path><path d="M0 406L90 390L180 438L270 400L360 419L450 430L540 443L630 421L720 386L810 435L900 397L900 601L810 601L720 601L630 601L540 601L450 601L360 601L270 601L180 601L90 601L0 601Z" fill="#cb3e62"></path><path d="M0 486L90 484L180 494L270 479L360 479L450 446L540 448L630 470L720 497L810 482L900 488L900 601L810 601L720 601L630 601L540 601L450 601L360 601L270 601L180 601L90 601L0 601Z" fill="#be3160"></path><path d="M0 502L90 527L180 546L270 522L360 521L450 527L540 541L630 545L720 515L810 509L900 522L900 601L810 601L720 601L630 601L540 601L450 601L360 601L270 601L180 601L90 601L0 601Z" fill="#b0235f"></path></svg>