<svg id="visual" viewBox="0 0 900 600" width="900" height="600" xmlns="http://www.w3.org/2000/svg" xmlns:xlink="http://www.w3.org/1999/xlink" version="1.1"><path d="M0 199L82 199L82 217L164 217L164 85L245 85L245 157L327 157L327 157L409 157L409 151L491 151L491 181L573 181L573 151L655 151L655 151L736 151L736 103L818 103L818 85L900 85L900 133L900 0L900 0L818 0L818 0L736 0L736 0L655 0L655 0L573 0L573 0L491 0L491 0L409 0L409 0L327 0L327 0L245 0L245 0L164 0L164 0L82 0L82 0L0 0Z" fill="#fa7268"></path><path d="M0 295L82 295L82 277L164 277L164 253L245 253L245 277L327 277L327 277L409 277L409 253L491 253L491 247L573 247L573 271L655 271L655 241L736 241L736 229L818 229L818 235L900 235L900 271L900 131L900 83L818 83L818 101L736 101L736 149L655 149L655 149L573 149L573 179L491 179L491 149L409 149L409 155L327 155L327 155L245 155L245 83L164 83L164 215L82 215L82 197L0 197Z" fill="#ea5e66"></path><path d="M0 361L82 361L82 313L164 313L164 319L245 319L245 373L327 373L327 367L409 367L409 331L491 331L491 313L573 313L573 349L655 349L655 277L736 277L736 313L818 313L818 277L900 277L900 367L900 269L900 233L818 233L818 227L736 227L736 239L655 239L655 269L573 269L573 245L491 245L491 251L409 251L409 275L327 275L327 275L245 275L245 251L164 251L164 275L82 275L82 293L0 293Z" fill="#d84a64"></path><path d="M0 421L82 421L82 391L164 391L164 385L245 385L245 415L327 415L327 475L409 475L409 427L491 427L491 379L573 379L573 439L655 439L655 337L736 337L736 367L818 367L818 397L900 397L900 487L900 365L900 275L818 275L818 311L736 311L736 275L655 275L655 347L573 347L573 311L491 311L491 329L409 329L409 365L327 365L327 371L245 371L245 317L164 317L164 311L82 311L82 359L0 359Z" fill="#c53762"></path><path d="M0 601L82 601L82 601L164 601L164 601L245 601L245 601L327 601L327 601L409 601L409 601L491 601L491 601L573 601L573 601L655 601L655 601L736 601L736 601L818 601L818 601L900 601L900 601L900 485L900 395L818 395L818 365L736 365L736 335L655 335L655 437L573 437L573 377L491 377L491 425L409 425L409 473L327 473L327 413L245 413L245 383L164 383L164 389L82 389L82 419L0 419Z" fill="#b0235f"></path></svg>